<svg xmlns="http://www.w3.org/2000/svg" viewBox="0 0 200 200">
  <!-- Background circle -->
  <circle cx="100" cy="100" r="100" fill="#f5f5f5"/>
  
  <!-- Outer decorative circle -->
  <circle cx="100" cy="100" r="95" fill="none" stroke="#A491D3" stroke-width="2" opacity="0.5"/>
  
  <!-- Left side - Purple/Pink gradient -->
  <path d="M 100 20 Q 60 40 50 80 Q 40 100 50 120 Q 60 160 100 180" fill="#C946EF" opacity="0.8"/>
  
  <!-- Right side - Green/Teal gradient -->
  <path d="M 100 20 Q 140 40 150 80 Q 160 100 150 120 Q 140 160 100 180" fill="#10B981" opacity="0.8"/>
  
  <!-- Center sun/star -->
  <circle cx="100" cy="70" r="15" fill="#FFD700"/>
  <circle cx="100" cy="70" r="12" fill="#FFA500"/>
  
  <!-- Moon symbol left -->
  <circle cx="65" cy="100" r="12" fill="#9333EA" opacity="0.9"/>
  <circle cx="70" cy="100" r="12" fill="#f5f5f5" opacity="0.7"/>
  
  <!-- Moon symbol right -->
  <circle cx="135" cy="100" r="12" fill="#06B6D4" opacity="0.9"/>
  <circle cx="130" cy="100" r="12" fill="#f5f5f5" opacity="0.7"/>
  
  <!-- Center tree/spiritual symbol -->
  <circle cx="100" cy="110" r="8" fill="#8B5CF6"/>
  <path d="M 100 102 L 95 115 M 100 102 L 105 115 M 100 102 L 100 120" stroke="#A491D3" stroke-width="1.5" fill="none"/>
  
  <!-- Decorative stars -->
  <circle cx="75" cy="50" r="2" fill="#FFD700" opacity="0.8"/>
  <circle cx="125" cy="50" r="2" fill="#FFD700" opacity="0.8"/>
  <circle cx="60" cy="140" r="2" fill="#06B6D4" opacity="0.8"/>
  <circle cx="140" cy="140" r="2" fill="#06B6D4" opacity="0.8"/>
  
  <!-- Inner circle frame -->
  <circle cx="100" cy="100" r="85" fill="none" stroke="#A491D3" stroke-width="1" opacity="0.3" stroke-dasharray="5,5"/>
</svg>
